PathFileType	4	(X/Y/Z)	Kaydara	
DataRate	CameraRate	NumFrames	NumMarkers	Units	OrigDataRate	OrigDataStartFrame	OrigNumFrames	
60.00	60.00	4	74	mm	60.00	254	96	
Frame#	Time	Z_lasi			Z_rasi			Z_rpsi			Z_lpsi			Z_fneck			Z_bneck			Z_fhead			Z_rhead			Z_lhead			Z_rshld			Z_relbtop			Z_relbext			Z_relblow			Z_rwrext			Z_rwrtop			Z_rwrlow			Z_lshld			Z_lelbext			Z_lelblow			Z_lelbtop			Z_lwrext			Z_lwrtop			Z_lwrlow			Z_rtopleg			Z_ltopleg			Z_rkneefr			Z_rkneebk			Z_rkneeis			Z_lkneefr			Z_lknssbk			Z_lkneeis			Z_rankfr			Z_rankis			Z_rankbk			Z_lankfr			Z_lankbk			Z_lankis			A_lasi			A_rasi			A_rpsi			A_lpsi			A_fneck			A_bneck			A_fhead			A_rhead			A_lhead			A_rshld			A_relbtop			A_relbext			A_relblow			A_rwrext			A_rwrtop			A_rwrlow			A_lshld			A_lelbext			A_lelblow			A_lelbtop			A_lwrext			A_lwrtop			A_lwrlow			A_rtopleg			A_ltopleg			A_rkneefr			A_rkneebk			A_rkneeis			A_lkneefr			A_lknssbk			A_lkneeis			A_rankfr			A_rankis			A_rankbk			A_lankfr			A_lankbk			A_lankis			
		X1	Y1	Z1	X2	Y2	Z2	X3	Y3	Z3	X4	Y4	Z4	X5	Y5	Z5	X6	Y6	Z6	X7	Y7	Z7	X8	Y8	Z8	X9	Y9	Z9	X10	Y10	Z10	X11	Y11	Z11	X12	Y12	Z12	X13	Y13	Z13	X14	Y14	Z14	X15	Y15	Z15	X16	Y16	Z16	X17	Y17	Z17	X18	Y18	Z18	X19	Y19	Z19	X20	Y20	Z20	X21	Y21	Z21	X22	Y22	Z22	X23	Y23	Z23	X24	Y24	Z24	X25	Y25	Z25	X26	Y26	Z26	X27	Y27	Z27	X28	Y28	Z28	X29	Y29	Z29	X30	Y30	Z30	X31	Y31	Z31	X32	Y32	Z32	X33	Y33	Z33	X34	Y34	Z34	X35	Y35	Z35	X36	Y36	Z36	X37	Y37	Z37	X38	Y38	Z38	X39	Y39	Z39	X40	Y40	Z40	X41	Y41	Z41	X42	Y42	Z42	X43	Y43	Z43	X44	Y44	Z44	X45	Y45	Z45	X46	Y46	Z46	X47	Y47	Z47	X48	Y48	Z48	X49	Y49	Z49	X50	Y50	Z50	X51	Y51	Z51	X52	Y52	Z52	X53	Y53	Z53	X54	Y54	Z54	X55	Y55	Z55	X56	Y56	Z56	X57	Y57	Z57	X58	Y58	Z58	X59	Y59	Z59	X60	Y60	Z60	X61	Y61	Z61	X62	Y62	Z62	X63	Y63	Z63	X64	Y64	Z64	X65	Y65	Z65	X66	Y66	Z66	X67	Y67	Z67	X68	Y68	Z68	X69	Y69	Z69	X70	Y70	Z70	X71	Y71	Z71	X72	Y72	Z72	X73	Y73	Z73	X74	Y74	Z74	

49	4.217	-222.03949	1073.08945	663.65158	-320.56137	1070.54993	478.77937	-176.36587	1115.86891	356.26877	-53.68342	1111.88492	572.33513	-321.06789	1418.20358	542.41131	-237.55341	1510.97931	510.77484	-474.37786	1559.51508	538.30116	-347.52296	1624.16550	448.88817	-325.01320	1619.72412	595.07885	-338.21640	1417.45575	347.73293	-430.57377	1111.59836	338.92189	-400.84736	1098.31558	392.10979	-465.60680	1174.87587	377.23270	-624.42364	1050.26413	494.62460	-638.76099	1093.87405	491.53229	-614.14345	1108.53760	523.57086	-165.43592	1464.91302	683.62381	-53.25885	1168.39760	684.79034	-96.24088	1185.56961	760.40146	-28.92378	1195.53513	747.18002	-146.74215	931.77353	780.16571	-119.18276	926.06895	818.58322	-79.27321	922.59628	794.73106	-217.16749	926.10199	326.74309	-120.26401	895.74455	679.30023	-284.82050	424.68311	410.65304	-220.18661	446.94107	351.39271	-211.84427	434.32350	474.96330	-212.72970	452.64523	667.13104	-108.00234	471.67534	643.55171	-211.94601	442.72564	575.98808	-257.80767	179.84205	399.04381	-228.94600	177.84559	459.06792	-182.70107	167.76333	385.14431	-152.26893	165.77198	663.93166	-97.25872	167.49971	605.69477	-176.19036	174.55420	596.34033	-1013.07091	1043.87718	463.29281	-981.19644	1046.34018	620.17113	-1132.85034	1030.90408	663.35892	-1136.95030	1040.71434	479.94133	-1080.21683	1381.91208	575.46394	-1220.63255	1402.76505	587.78534	-1021.87378	1586.60919	593.69923	-1162.22862	1548.39874	687.15744	-1174.48471	1560.41870	524.67720	-1115.74966	1355.32730	752.92496	-955.75821	1123.96561	740.68626	-996.51276	1073.12866	741.92642	-971.73782	1116.60599	686.49658	-747.82639	1058.45871	639.92683	-748.99353	1104.97498	638.42915	-774.02222	1094.09531	608.42609	-1161.76437	1352.44965	407.01862	-1176.28601	1038.84521	400.64827	-1109.18518	1054.01535	380.93800	-1157.21664	1048.94272	355.37582	-1072.26929	827.86377	353.69480	-1102.88429	828.50327	320.83382	-1063.93326	843.24448	301.33560	-1057.50809	875.22133	729.32755	-1065.23964	895.83786	389.16035	-1021.75415	454.02565	629.16687	-1125.63622	487.44957	683.35304	-1115.35645	487.99038	564.23199	-1011.24908	471.10027	498.66085	-1106.58646	482.91962	413.19824	-1115.20164	481.11675	537.56836	-1094.45618	166.97033	657.01797	-1132.38220	164.37458	593.55846	-1174.67323	155.99437	665.85899	-1069.30435	169.50209	450.51823	-1132.83302	170.93946	419.59389	-1124.20631	175.77692	508.31226 
50	4.233	-222.54530	1073.82874	665.18806	-318.27053	1071.86081	478.87058	-172.19936	1116.11473	358.73016	-52.47089	1112.18361	576.36646	-318.64315	1417.86407	545.44983	-235.62704	1511.12274	515.36758	-473.24211	1557.84103	541.81568	-346.17874	1624.80301	454.04312	-324.77005	1618.38409	600.45570	-335.08736	1420.27039	351.37428	-431.51474	1114.55719	339.83875	-401.74992	1101.28761	393.44913	-467.63725	1177.29652	378.86093	-624.13647	1047.15454	496.05286	-639.12689	1090.73914	494.61575	-614.39049	1104.45000	526.95576	-164.93668	1463.94241	688.26714	-53.48423	1167.03865	688.62427	-97.07644	1183.46458	764.28551	-29.72439	1193.62373	751.43219	-144.31989	927.89040	780.71838	-117.37019	922.34070	819.54643	-77.31200	920.27618	796.74347	-213.61147	926.16905	328.64559	-120.60579	895.86212	682.26524	-284.23449	424.94488	411.19720	-219.22190	447.15927	352.64874	-211.58127	434.11289	476.01467	-211.10601	452.60761	667.61665	-106.03998	471.64604	644.98009	-209.34599	442.83966	576.29967	-257.47822	179.98049	399.24526	-228.70306	177.80193	459.37069	-182.22494	167.90047	385.67093	-151.73393	165.66744	664.26643	-96.62351	167.14579	606.44917	-175.20874	174.73175	596.64181	-1012.48611	1043.62526	462.08584	-979.97925	1046.53473	618.90526	-1131.38268	1031.36093	663.02940	-1136.36993	1040.60158	479.57130	-1078.04321	1381.82556	573.42571	-1218.34015	1401.99432	585.38467	-1020.70183	1586.91864	593.81405	-1161.73836	1546.98807	685.17014	-1172.25357	1560.70633	522.72938	-1112.14767	1352.96188	751.43532	-957.89330	1119.68079	740.23247	-999.78836	1071.22978	742.35748	-976.30638	1111.00540	685.84465	-751.39526	1046.49185	640.77721	-751.00388	1093.18108	640.80269	-775.46158	1083.74306	609.38068	-1160.26306	1351.78543	405.37228	-1174.94347	1037.86301	399.72919	-1107.68219	1053.03787	380.11791	-1155.67940	1047.89513	354.51500	-1069.67865	827.13539	354.18282	-1100.34340	827.30072	321.47736	-1061.77803	842.18925	301.72827	-1055.67688	875.28450	729.00063	-1065.12245	895.62904	389.03683	-1020.06012	454.06441	628.53065	-1123.80699	487.52403	682.85126	-1113.77464	487.98111	563.74775	-1009.93912	471.00746	498.50826	-1105.64835	482.73216	413.46928	-1113.52722	480.99995	537.77119	-1093.89214	166.90397	656.79459	-1131.96198	164.41694	593.42548	-1174.13643	156.29280	665.73761	-1069.01634	169.29632	450.60753	-1132.54845	170.92382	419.82262	-1123.69293	175.71640	508.52924 
51	4.250	-222.63348	1074.68391	666.87004	-316.04218	1072.89513	479.32957	-168.27091	1116.23863	361.11019	-51.15978	1112.38045	580.12466	-317.40112	1417.43744	549.41181	-234.37294	1511.15387	520.18909	-472.53151	1556.59988	545.29434	-345.01015	1624.93835	459.40136	-324.73835	1617.39395	605.74329	-333.90339	1422.27264	355.50320	-429.73804	1114.52316	340.26745	-399.82185	1100.89767	394.04892	-465.58693	1177.02339	380.88703	-622.19597	1047.99355	497.35989	-636.07063	1091.93680	497.24487	-610.17494	1104.43893	529.88308	-163.89557	1462.90543	692.45155	-53.56686	1165.59586	692.46170	-97.90204	1181.42662	768.03749	-30.37473	1191.69403	755.68130	-142.06081	924.20860	781.33301	-116.93929	919.06967	821.25603	-75.69129	918.19008	799.72328	-209.71416	926.12450	330.59505	-120.74574	896.12190	685.29938	-283.72877	425.11818	411.96465	-218.12040	447.36244	353.93219	-211.65329	433.98540	477.45548	-209.94423	452.43210	667.70798	-104.33620	471.70334	646.01402	-206.76123	443.27782	576.56696	-257.11777	180.07662	399.37580	-228.58589	177.75885	459.73431	-181.75245	168.02814	386.22849	-151.39098	165.55286	664.40224	-95.94236	166.86174	606.75766	-174.61029	174.79473	596.73752	-1011.92955	1043.24966	460.97893	-978.94379	1046.62811	617.73445	-1130.41008	1031.39015	662.51068	-1135.70419	1040.28610	478.93223	-1076.02196	1381.48560	572.39960	-1216.15097	1401.10855	583.47073	-1019.18106	1587.00455	593.25653	-1160.68413	1546.21597	683.23860	-1170.09529	1560.34607	520.79418	-1109.04388	1350.06760	751.29684	-956.68793	1116.82617	736.44096	-999.28116	1069.17671	739.15108	-976.18759	1107.46826	682.27837	-750.54573	1046.23375	639.56215	-748.78456	1092.68250	640.93559	-772.63145	1085.33867	608.92159	-1158.72719	1352.13898	404.49894	-1173.31856	1037.81586	399.27319	-1105.78888	1053.01971	379.81422	-1153.84361	1047.73239	354.11221	-1067.44934	827.25716	354.90662	-1098.11775	827.03636	322.10011	-1059.57283	842.02507	302.25277	-1054.10797	875.21057	728.63152	-1064.41414	895.40627	388.41114	-1018.51624	453.97713	627.85412	-1122.24297	487.43980	682.31346	-1112.32727	487.90169	563.19965	-1008.47717	470.88436	498.38589	-1104.56520	482.46502	413.62888	-1111.91917	480.75203	537.97707	-1093.30322	166.83622	656.53008	-1131.46637	164.38574	593.20511	-1173.83446	156.48872	665.59418	-1068.66493	168.93658	450.72365	-1132.20100	170.79247	420.07816	-1123.06122	175.50186	508.81706 
52	4.267	-221.97407	1075.16685	668.77434	-314.11627	1073.30765	480.57442	-165.26682	1116.46545	363.46642	-49.72149	1112.59445	583.46153	-317.20169	1416.56815	554.10194	-234.12060	1510.93979	525.14595	-472.36534	1556.21857	549.17412	-343.84212	1624.60922	465.03128	-324.92962	1615.56885	611.64513	-334.62170	1422.90375	360.66292	-424.53056	1112.07253	340.28561	-394.63097	1098.33084	393.99834	-459.98802	1175.60654	381.47755	-616.96632	1052.11197	499.27284	-630.12177	1096.41296	498.04047	-604.23420	1108.82423	530.20103	-162.78463	1461.62689	696.47255	-53.34769	1164.03549	696.01044	-98.23529	1179.38538	771.43448	-30.58036	1189.81506	759.45747	-140.01353	921.13274	782.08237	-116.79379	916.24191	823.24646	-74.44801	916.46172	803.34427	-206.08704	926.03798	332.62489	-120.72783	896.15669	688.19923	-283.42514	425.26161	412.66617	-217.12662	447.45415	355.25368	-211.80637	433.89545	478.73596	-209.06334	452.15816	667.83836	-103.02755	471.67942	647.19589	-204.54124	443.40286	576.24329	-256.72934	180.22705	399.69334	-228.63268	177.66743	460.10750	-181.44407	168.14798	386.84746	-151.05021	165.36358	664.46274	-95.43306	166.61367	606.96693	-174.04381	174.85725	596.79890	-1011.26076	1042.85378	459.85405	-978.10883	1046.43738	616.82453	-1129.35204	1030.87158	661.63635	-1134.27452	1039.75243	477.86598	-1074.46793	1381.08231	572.34589	-1214.18175	1400.36331	582.23732	-1017.59567	1586.91422	592.29912	-1159.34105	1546.31683	681.70113	-1168.08228	1559.54422	519.16821	-1107.90138	1347.92267	752.23694	-953.41484	1117.12204	730.97542	-994.95773	1067.33360	733.07884	-972.34482	1108.07411	677.15523	-745.94574	1054.90929	638.65379	-744.66301	1101.35086	639.74060	-767.79526	1094.22897	607.23644	-1156.95068	1353.02628	404.15169	-1171.61362	1038.64830	399.23306	-1103.98575	1053.93448	380.00832	-1151.82434	1048.44627	354.28688	-1065.68298	828.00247	355.36804	-1096.03004	827.75375	322.47383	-1057.32323	842.97112	302.69718	-1052.66441	875.13992	728.18787	-1065.84312	894.48593	389.38183	-1017.17392	453.65757	627.46838	-1120.93613	487.32895	681.70654	-1111.03600	487.74414	562.67651	-1007.32620	470.54424	498.46554	-1103.42148	482.05521	413.79524	-1110.67421	480.46425	538.21869	-1092.92923	166.68295	656.35170	-1131.02112	164.27624	592.99828	-1173.61130	156.61331	665.41977	-1068.23830	168.45995	450.99297	-1131.79970	170.52889	420.43617	-1122.67288	175.28347	509.12193 
